<svg xmlns="http://www.w3.org/2000/svg" width="540.3460693359375" height="331.13262939453125" viewBox="-301.23480224609375 -85.01786041259766 540.3460693359375 331.13262939453125"><title>Neo4j Graph Visualization</title><desc>Created using Neo4j (http://www.neo4j.com/)</desc><g class="layer relationships"><g class="relationship" transform="translate(195.11131685043188 187.54057806234098) rotate(225.1907732839809)"><path class="outline" fill="#FFD86E" stroke="none" d="M 40 12.5 L 251.1595620720082 12.5 L 251.1595620720082 15.5 L 282.1595620720082 0 L 251.1595620720082 -15.5 L 251.1595620720082 -12.5 L 40 -12.5 Z"/><text text-anchor="middle" pointer-events="none" font-size="8px" fill="#604A0E" x="145.5797810360041" y="3" transform="rotate(180 145.5797810360041 0)" font-family="sans-serif">SON</text></g><g class="relationship" transform="translate(-257.2347924831914 191.27030362320932) rotate(314.12565335818925)"><path class="outline" fill="#FFD86E" stroke="none" d="M 40 12.5 L 252.60466206388492 12.5 L 252.60466206388492 15.5 L 283.6046620638849 0 L 252.60466206388492 -15.5 L 252.60466206388492 -12.5 L 40 -12.5 Z"/><text text-anchor="middle" pointer-events="none" font-size="8px" fill="#604A0E" x="146.30233103194246" y="3" font-family="sans-serif">SON</text></g><g class="relationship" transform="translate(195.11131685043188 187.54057806234098) rotate(539.5275902976998)"><path class="outline" fill="#DE9BF9" stroke="none" d="M 35.40179498778122,-22.426834632714183 L 41.87227111534424,1.7213110245125236 A 697.4181414041905 697.4181414041905 0 0 1 380.375632853116,-3.9098633874898923 L 379.6959906630336,-0.9878629608198182 L 413.40147972071645,-9.061895867764438 L 386.71895996055105,-31.181867369743912 L 386.0393177704687,-28.25986694307384 A 722.4181414041905 722.4181414041905 0 0 0 35.40179498778122,-22.426834632714183"/><text text-anchor="middle" pointer-events="none" font-size="8px" fill="#FFFFFF" x="210.5691554144371" y="-31.44442487431536" transform="rotate(180 210.5691554144371 -34.44442487431536)" font-family="sans-serif">BROTHER</text></g><g class="relationship" transform="translate(-257.2347924831914 191.27030362320932) rotate(359.5275902976998)"><path class="outline" fill="#DE9BF9" stroke="none" d="M 35.40179498778122,-22.426834632714183 L 41.87227111534424,1.7213110245125236 A 697.4181414041905 697.4181414041905 0 0 1 380.375632853116,-3.9098633874898923 L 379.6959906630336,-0.9878629608198182 L 413.40147972071645,-9.061895867764438 L 386.71895996055105,-31.181867369743912 L 386.0393177704687,-28.25986694307384 A 722.4181414041905 722.4181414041905 0 0 0 35.40179498778122,-22.426834632714183"/><text text-anchor="middle" pointer-events="none" font-size="8px" fill="#FFFFFF" x="210.5691554144371" y="-31.44442487431536" font-family="sans-serif">BROTHER</text></g></g><g class="layer nodes"><g class="node" transform="translate(-31.93014086400227,-41.01786066467898)"><circle class="outline" cx="0" cy="0" r="40" fill="#6DCE9E" stroke="#60B58B" stroke-width="2px"/><text text-anchor="middle" pointer-events="none" y="5" font-size="10px" fill="#FFFFFF" font-family="sans-serif"> Odin</text></g><g class="node selected" transform="translate(195.11131685043188,187.54057806234098)"><circle class="outline" cx="0" cy="0" r="40" fill="#68BDF6" stroke="#5CA8DB" stroke-width="2px"/><text text-anchor="middle" pointer-events="none" y="5" font-size="10px" fill="#FFFFFF" font-family="sans-serif"> Thor</text></g><g class="node" transform="translate(-257.2347924831914,191.27030362320932)"><circle class="outline" cx="0" cy="0" r="40" fill="#68BDF6" stroke="#5CA8DB" stroke-width="2px"/><text text-anchor="middle" pointer-events="none" y="5" font-size="10px" fill="#FFFFFF" font-family="sans-serif"> Loki</text></g></g></svg>