<svg xmlns="http://www.w3.org/2000/svg" width="540.346" height="331.133" viewBox="-301.23480224609375 -85.01786041259766 540.3460693359375 331.13262939453125"><title>Neo4j Graph Visualization</title><desc>Created using Neo4j (http://www.neo4j.com/)</desc><g class="layer relationships"><g class="relationship"><path class="outline" fill="#FFD86E" d="M175.79 150.353L26.975.543l2.13-2.113L-3.74-12.64 7.11 20.277l2.13-2.114 148.813 149.81z"/><text text-anchor="middle" pointer-events="none" font-size="8" fill="#604A0E" x="145.58" y="3" transform="rotate(45.19 17.816 -21.626)" font-family="sans-serif">SON</text></g><g class="relationship"><path class="outline" fill="#FFD86E" d="M-220.413 171.26L-72.39 18.65l2.153 2.09 10.457-33.045-32.71 11.46 2.155 2.09-148.023 152.61z"/><text text-anchor="middle" pointer-events="none" font-size="8" fill="#604A0E" x="146.302" y="3" font-family="sans-serif" transform="rotate(-45.874 97.374 399.565)">SON</text></g><g class="relationship"><path class="outline" fill="#DE9BF9" d="M159.896 210.26l-6.67-24.095a697.418 697.418 0 0 1-338.445 8.422l.656-2.928-33.637 8.35 26.863 21.9.655-2.928a722.418 722.418 0 0 0 350.578-8.723"/><text text-anchor="middle" pointer-events="none" font-size="8" fill="#FFF" x="210.569" y="-31.444" transform="rotate(-.472 31408.758 27472.648)" font-family="sans-serif">BROTHER</text></g><g class="relationship"><path class="outline" fill="#DE9BF9" d="M-222.02 168.552l6.67 24.094a697.418 697.418 0 0 1 338.446-8.422l-.656 2.928 33.638-8.352-26.864-21.9-.656 2.928a722.418 722.418 0 0 0-350.577 8.724"/><text text-anchor="middle" pointer-events="none" font-size="8" fill="#FFF" x="210.569" y="-31.444" font-family="sans-serif" transform="rotate(-.472 23069.295 31293.945)">BROTHER</text></g></g><g class="layer nodes"><g class="node" transform="translate(-31.93 -41.018)"><circle class="outline" r="40" fill="#6DCE9E" stroke="#60B58B" stroke-width="2"/><text text-anchor="middle" pointer-events="none" y="5" font-size="10" fill="#FFF" font-family="sans-serif">Odin</text></g><g class="node selected" transform="translate(195.11 187.54)"><circle class="outline" r="40" fill="#68BDF6" stroke="#5CA8DB" stroke-width="2"/><text text-anchor="middle" pointer-events="none" y="5" font-size="10" fill="#FFF" font-family="sans-serif">Thor</text></g><g class="node" transform="translate(-257.235 191.27)"><circle class="outline" r="40" fill="#68BDF6" stroke="#5CA8DB" stroke-width="2"/><text text-anchor="middle" pointer-events="none" y="5" font-size="10" fill="#FFF" font-family="sans-serif">Loki</text></g></g></svg>