<svg xmlns="http://www.w3.org/2000/svg" width="540.346" height="331.133" viewBox="-301.23480224609375 -85.01786041259766 540.3460693359375 331.13262939453125"><title>Neo4j Graph Visualization</title><desc>Created using Neo4j (http://www.neo4j.com/)</desc><g class="layer relationships"><g class="relationship"><path class="outline" fill="#FFD86E" d="M175.773 150.368L26.906.656l2.127-2.115L-3.81-12.51 7.053 20.396 9.18 18.28 158.05 167.994z"/><text text-anchor="middle" pointer-events="none" font-size="8" fill="#604A0E" x="145.58" y="3" transform="matrix(.705 .709 -.709 .705 -10.157 -18.891)" font-family="sans-serif">SON</text></g><g class="relationship"><path class="outline" fill="#FFD86E" d="M-220.42 171.25L-72.447 18.6l2.154 2.088 10.447-33.046L-92.55-.888l2.153 2.088-147.973 152.65z"/><text text-anchor="middle" pointer-events="none" font-size="8" fill="#604A0E" x="146.302" y="3" font-family="sans-serif" transform="translate(-257.235 191.27) rotate(314.126)">SON</text></g><g class="relationship"><path class="outline" fill="#DE9BF9" d="M159.89 210.25l-6.665-24.095a697.418 697.418 539.528 0 1-338.458 8.34l.656-2.93-33.64 8.345 26.858 21.907.658-2.928a722.418 722.418 539.528 0 0 350.59-8.64"/><text text-anchor="middle" pointer-events="none" font-size="8" fill="#FFF" x="210.569" y="-31.444" transform="matrix(1 -.008 .008 1 195.111 187.541)" font-family="sans-serif">BROTHER</text></g><g class="relationship"><path class="outline" fill="#DE9BF9" d="M-222.013 168.56l6.664 24.096a697.418 697.418 359.528 0 1 338.46-8.34l-.657 2.93 33.64-8.345-26.858-21.906-.657 2.928a722.418 722.418 359.528 0 0-350.59 8.638"/><text text-anchor="middle" pointer-events="none" font-size="8" fill="#FFF" x="210.569" y="-31.444" font-family="sans-serif" transform="translate(-257.235 191.27) rotate(359.528)">BROTHER</text></g></g><g class="layer nodes"><g class="node" transform="translate(-31.93 -41.018)"><circle class="outline" r="40" fill="#6DCE9E" stroke="#60B58B" stroke-width="2"/><text text-anchor="middle" pointer-events="none" y="5" font-size="10" fill="#FFF" font-family="sans-serif">Odin</text></g><g class="node selected" transform="translate(195.111 187.541)"><circle class="outline" r="40" fill="#68BDF6" stroke="#5CA8DB" stroke-width="2"/><text text-anchor="middle" pointer-events="none" y="5" font-size="10" fill="#FFF" font-family="sans-serif">Thor</text></g><g class="node" transform="translate(-257.235 191.27)"><circle class="outline" r="40" fill="#68BDF6" stroke="#5CA8DB" stroke-width="2"/><text text-anchor="middle" pointer-events="none" y="5" font-size="10" fill="#FFF" font-family="sans-serif">Loki</text></g></g></svg>